<?xml version="1.0" encoding="UTF-8" standalone="no"?>
<!DOCTYPE svg PUBLIC "-//W3C//DTD SVG 1.0//EN" "http://www.w3.org/TR/2001/PR-SVG-20010719/DTD/svg10.dtd">
<svg width="12cm" height="11cm" viewBox="26 38 250 207" xmlns="http://www.w3.org/2000/svg" xmlns:xlink="http://www.w3.org/1999/xlink">
  <rect style="fill: none; fill-opacity:0; stroke-width: 0.635; stroke: #000000" x="79.375" y="63.5" width="44.45" height="9.525"/>
  <rect style="fill: none; fill-opacity:0; stroke-width: 0.635; stroke: #000000" x="79.375" y="53.975" width="44.45" height="9.525"/>
  <rect style="fill: none; fill-opacity:0; stroke-width: 0.635; stroke: #000000" x="79.375" y="73.025" width="44.45" height="9.525"/>
  <rect style="fill: none; fill-opacity:0; stroke-width: 0.635; stroke: #000000" x="79.375" y="82.55" width="44.45" height="9.525"/>
  <rect style="fill: none; fill-opacity:0; stroke-width: 0.635; stroke: #000000" x="79.375" y="92.075" width="44.45" height="9.525"/>
  <rect style="fill: none; fill-opacity:0; stroke-width: 0.635; stroke: #000000" x="79.375" y="101.6" width="44.45" height="9.525"/>
  <rect style="fill: none; fill-opacity:0; stroke-width: 0.635; stroke: #000000" x="79.375" y="120.65" width="44.45" height="9.525"/>
  <rect style="fill: none; fill-opacity:0; stroke-width: 0.635; stroke: #000000" x="79.375" y="111.125" width="44.45" height="9.525"/>
  <g>
    <polyline style="fill: none; fill-opacity:0; stroke-width: 0.635; stroke: #000000" points="123.825,76.2 163.085,64.9828 "/>
    <polygon style="fill: #000000" points="163.434,66.2039 167.97,63.5872 162.736,63.7617 "/>
    <polygon style="fill: none; fill-opacity:0; stroke-width: 0.635; stroke: #000000" points="163.434,66.2039 167.97,63.5872 162.736,63.7617 "/>
  </g>
  <g>
    <polyline style="fill: none; fill-opacity:0; stroke-width: 0.635; stroke: #000000" points="123.825,85.725 163.192,99.7846 "/>
    <polygon style="fill: #000000" points="162.765,100.981 167.976,101.493 163.619,98.5886 "/>
    <polygon style="fill: none; fill-opacity:0; stroke-width: 0.635; stroke: #000000" points="162.765,100.981 167.976,101.493 163.619,98.5886 "/>
  </g>
  <g>
    <polyline style="fill: none; fill-opacity:0; stroke-width: 0.635; stroke: #000000" points="123.825,95.25 164.177,129.837 "/>
    <polygon style="fill: #000000" points="163.35,130.802 168.034,133.143 165.003,128.873 "/>
    <polygon style="fill: none; fill-opacity:0; stroke-width: 0.635; stroke: #000000" points="163.35,130.802 168.034,133.143 165.003,128.873 "/>
  </g>
  <rect style="fill: none; fill-opacity:0; stroke-width: 0.635; stroke: #000000" x="168.275" y="57.15" width="31.75" height="28.575"/>
  <rect style="fill: none; fill-opacity:0; stroke-width: 0.635; stroke: #000000" x="168.275" y="92.075" width="31.75" height="28.575"/>
  <rect style="fill: none; fill-opacity:0; stroke-width: 0.635; stroke: #000000" x="168.275" y="127" width="31.75" height="28.575"/>
  <rect style="fill: none; fill-opacity:0; stroke-width: 0.635; stroke: #000000" x="168.275" y="174.625" width="31.75" height="28.575"/>
  <polyline style="fill: none; fill-opacity:0; stroke-width: 0.635; stroke: #000000" points="168.275,177.8 200.025,177.8 "/>
  <polyline style="fill: none; fill-opacity:0; stroke-width: 0.635; stroke: #000000" points="168.275,180.975 200.025,180.975 "/>
  <polyline style="fill: none; fill-opacity:0; stroke-width: 0.635; stroke: #000000" points="168.275,184.15 200.025,184.15 "/>
  <polyline style="fill: none; fill-opacity:0; stroke-width: 0.635; stroke: #000000" points="168.275,187.325 200.025,187.325 "/>
  <polyline style="fill: none; fill-opacity:0; stroke-width: 0.635; stroke: #000000" points="168.275,190.5 200.025,190.5 "/>
  <polyline style="fill: none; fill-opacity:0; stroke-width: 0.635; stroke: #000000" points="168.275,193.675 200.025,193.675 "/>
  <polyline style="fill: none; fill-opacity:0; stroke-width: 0.635; stroke: #000000" points="168.275,196.85 200.025,196.85 "/>
  <polyline style="fill: none; fill-opacity:0; stroke-width: 0.635; stroke: #000000" points="168.275,200.025 200.025,200.025 "/>
  <rect style="fill: none; fill-opacity:0; stroke-width: 0.635; stroke: #000000" x="228.6" y="146.05" width="31.75" height="28.575"/>
  <rect style="fill: none; fill-opacity:0; stroke-width: 0.635; stroke: #000000" x="228.6" y="180.975" width="31.75" height="28.575"/>
  <rect style="fill: none; fill-opacity:0; stroke-width: 0.635; stroke: #000000" x="228.6" y="215.9" width="31.75" height="28.575"/>
  <g>
    <polyline style="fill: none; fill-opacity:0; stroke-width: 0.635; stroke: #000000" points="200.025,200.025 224.783,224.783 "/>
    <polygon style="fill: #000000" points="223.885,225.681 228.375,228.375 225.681,223.885 "/>
    <polygon style="fill: none; fill-opacity:0; stroke-width: 0.635; stroke: #000000" points="223.885,225.681 228.375,228.375 225.681,223.885 "/>
  </g>
  <g>
    <polyline style="fill: none; fill-opacity:0; stroke-width: 0.635; stroke: #000000" points="200.025,180.975 223.668,191.483 "/>
    <polygon style="fill: #000000" points="223.152,192.643 228.31,193.546 224.183,190.322 "/>
    <polygon style="fill: none; fill-opacity:0; stroke-width: 0.635; stroke: #000000" points="223.152,192.643 228.31,193.546 224.183,190.322 "/>
  </g>
  <g>
    <polyline style="fill: none; fill-opacity:0; stroke-width: 0.635; stroke: #000000" points="200.025,174.625 223.882,161.371 "/>
    <polygon style="fill: #000000" points="224.499,162.481 228.322,158.904 223.265,160.261 "/>
    <polygon style="fill: none; fill-opacity:0; stroke-width: 0.635; stroke: #000000" points="224.499,162.481 228.322,158.904 223.265,160.261 "/>
  </g>
  <polyline style="fill: none; fill-opacity:0; stroke-width: 0.635; stroke: #000000" points="66.675,53.975 60.325,53.975 60.325,130.175 66.675,130.175 "/>
  <polyline style="fill: none; fill-opacity:0; stroke-width: 0.635; stroke: #000000" points="206.375,57.15 212.725,57.15 212.725,85.725 206.375,85.725 "/>
  <g>
    <polyline style="fill: none; fill-opacity:0; stroke-width: 0.635; stroke: #000000" points="123.825,123.825 164.328,170.832 "/>
    <polygon style="fill: #000000" points="163.366,171.661 167.644,174.681 165.291,170.003 "/>
    <polygon style="fill: none; fill-opacity:0; stroke-width: 0.635; stroke: #000000" points="163.366,171.661 167.644,174.681 165.291,170.003 "/>
  </g>
  <polyline style="fill: none; fill-opacity:0; stroke-width: 0.635; stroke: #000000" points="155.575,174.625 149.225,174.625 149.225,206.375 155.575,206.375 "/>
  <text style="fill: #000000;text-anchor:middle;font-size:6.77333;font-family:serif;font-style:normal;font-weight:normal" x="101.6" y="79.375">
    <tspan x="101.6" y="79.375">direct[0]</tspan>
  </text>
  <text style="fill: #000000;text-anchor:middle;font-size:6.77333;font-family:serif;font-style:normal;font-weight:normal" x="101.6" y="88.9">
    <tspan x="101.6" y="88.9">direct[1]</tspan>
  </text>
  <text style="fill: #000000;text-anchor:middle;font-size:6.77333;font-family:serif;font-style:normal;font-weight:normal" x="101.6" y="98.425">
    <tspan x="101.6" y="98.425">direct[2]</tspan>
  </text>
  <text style="fill: #000000;text-anchor:middle;font-size:6.77333;font-family:serif;font-style:normal;font-weight:normal" x="101.6" y="107.95">
    <tspan x="101.6" y="107.95">direct[3]</tspan>
  </text>
  <text style="fill: #000000;text-anchor:middle;font-size:6.77333;font-family:serif;font-style:normal;font-weight:normal" x="101.6" y="117.475">
    <tspan x="101.6" y="117.475">direct[4]</tspan>
  </text>
  <text style="fill: #000000;text-anchor:middle;font-size:6.77333;font-family:serif;font-style:normal;font-weight:normal" x="101.6" y="69.85">
    <tspan x="101.6" y="69.85">size</tspan>
  </text>
  <text style="fill: #000000;text-anchor:middle;font-size:6.77333;font-family:serif;font-style:normal;font-weight:normal" x="101.6" y="60.325">
    <tspan x="101.6" y="60.325">isvalid</tspan>
  </text>
  <text style="fill: #000000;text-anchor:middle;font-size:6.77333;font-family:serif;font-style:normal;font-weight:normal" x="184.15" y="69.85">
    <tspan x="184.15" y="69.85">data</tspan>
  </text>
  <text style="fill: #000000;text-anchor:middle;font-size:6.77333;font-family:serif;font-style:normal;font-weight:normal" x="184.15" y="79.375">
    <tspan x="184.15" y="79.375">block</tspan>
  </text>
  <text style="fill: #000000;text-anchor:middle;font-size:6.77333;font-family:serif;font-style:normal;font-weight:normal" x="184.15" y="104.775">
    <tspan x="184.15" y="104.775">data</tspan>
  </text>
  <text style="fill: #000000;text-anchor:middle;font-size:6.77333;font-family:serif;font-style:normal;font-weight:normal" x="184.15" y="139.7">
    <tspan x="184.15" y="139.7">data</tspan>
  </text>
  <text style="fill: #000000;text-anchor:middle;font-size:6.77333;font-family:serif;font-style:normal;font-weight:normal" x="184.15" y="114.3">
    <tspan x="184.15" y="114.3">block</tspan>
  </text>
  <text style="fill: #000000;text-anchor:middle;font-size:6.77333;font-family:serif;font-style:normal;font-weight:normal" x="184.15" y="149.225">
    <tspan x="184.15" y="149.225">block</tspan>
  </text>
  <text style="fill: #000000;text-anchor:middle;font-size:6.77333;font-family:serif;font-style:normal;font-weight:normal" x="184.15" y="212.725">
    <tspan x="184.15" y="212.725">indirect</tspan>
  </text>
  <text style="fill: #000000;text-anchor:middle;font-size:6.77333;font-family:serif;font-style:normal;font-weight:normal" x="184.15" y="222.25">
    <tspan x="184.15" y="222.25">block</tspan>
  </text>
  <text style="fill: #000000;text-anchor:middle;font-size:6.77333;font-family:serif;font-style:normal;font-weight:normal" x="101.6" y="127">
    <tspan x="101.6" y="127">indirect</tspan>
  </text>
  <text style="fill: #000000;text-anchor:middle;font-size:6.77333;font-family:serif;font-style:normal;font-weight:normal" x="244.475" y="158.75">
    <tspan x="244.475" y="158.75">data</tspan>
  </text>
  <text style="fill: #000000;text-anchor:middle;font-size:6.77333;font-family:serif;font-style:normal;font-weight:normal" x="244.475" y="193.675">
    <tspan x="244.475" y="193.675">data</tspan>
  </text>
  <text style="fill: #000000;text-anchor:middle;font-size:6.77333;font-family:serif;font-style:normal;font-weight:normal" x="244.475" y="228.6">
    <tspan x="244.475" y="228.6">data</tspan>
  </text>
  <text style="fill: #000000;text-anchor:middle;font-size:6.77333;font-family:serif;font-style:normal;font-weight:normal" x="244.475" y="168.275">
    <tspan x="244.475" y="168.275">block</tspan>
  </text>
  <text style="fill: #000000;text-anchor:middle;font-size:6.77333;font-family:serif;font-style:normal;font-weight:normal" x="244.475" y="203.2">
    <tspan x="244.475" y="203.2">block</tspan>
  </text>
  <text style="fill: #000000;text-anchor:middle;font-size:6.77333;font-family:serif;font-style:normal;font-weight:normal" x="244.475" y="238.125">
    <tspan x="244.475" y="238.125">block</tspan>
  </text>
  <text style="fill: #000000;text-anchor:middle;font-size:6.77333;font-family:serif;font-style:normal;font-weight:normal" x="41.275" y="88.9">
    <tspan x="41.275" y="88.9">32 bytes</tspan>
  </text>
  <text style="fill: #000000;text-anchor:middle;font-size:6.77333;font-family:serif;font-style:normal;font-weight:normal" x="41.275" y="98.425">
    <tspan x="41.275" y="98.425">total</tspan>
  </text>
  <text style="fill: #000000;text-anchor:middle;font-size:6.77333;font-family:serif;font-style:normal;font-weight:normal" x="101.6" y="44.45">
    <tspan x="101.6" y="44.45">Inode</tspan>
  </text>
  <text style="fill: #000000;text-anchor:middle;font-size:6.77333;font-family:serif;font-style:normal;font-weight:normal" x="225.425" y="69.85">
    <tspan x="225.425" y="69.85">4KB</tspan>
  </text>
  <text style="fill: #000000;text-anchor:middle;font-size:6.77333;font-family:serif;font-style:normal;font-weight:normal" x="225.425" y="79.375">
    <tspan x="225.425" y="79.375">total</tspan>
  </text>
  <text style="fill: #000000;text-anchor:middle;font-size:6.77333;font-family:serif;font-style:normal;font-weight:normal" x="133.35" y="193.675">
    <tspan x="133.35" y="193.675">4-byte</tspan>
  </text>
  <text style="fill: #000000;text-anchor:middle;font-size:6.77333;font-family:serif;font-style:normal;font-weight:normal" x="133.35" y="203.2">
    <tspan x="133.35" y="203.2">pointers</tspan>
  </text>
  <text style="fill: #000000;text-anchor:middle;font-size:6.77333;font-family:serif;font-style:normal;font-weight:normal" x="133.35" y="184.15">
    <tspan x="133.35" y="184.15">1024</tspan>
  </text>
</svg>
